<mxfile host="app.diagrams.net" modified="2024-05-30T00:43:12.823Z" agent="Mozilla/5.0 (Windows NT 10.0; Win64; x64) AppleWebKit/537.36 (KHTML, like Gecko) Chrome/125.0.0.0 Safari/537.36 Edg/125.0.0.0" etag="GFRFdBTtZWm6ldPZE7Ui" version="24.4.10" type="github">
  <diagram name="Page-1" id="zIkEey9hMnGSD0FNgRtD">
    <mxGraphModel dx="1128" dy="1598" grid="1" gridSize="10" guides="1" tooltips="1" connect="1" arrows="1" fold="1" page="1" pageScale="1" pageWidth="850" pageHeight="1100" math="0" shadow="0">
      <root>
        <mxCell id="0" />
        <mxCell id="1" parent="0" />
        <mxCell id="eQs5KJgAMZQmj60F_Wst-5" value="" style="swimlane;startSize=0;" vertex="1" parent="1">
          <mxGeometry x="160" y="30" width="460" height="610" as="geometry" />
        </mxCell>
        <mxCell id="eQs5KJgAMZQmj60F_Wst-10" value="add menu item" style="ellipse;whiteSpace=wrap;html=1;" vertex="1" parent="eQs5KJgAMZQmj60F_Wst-5">
          <mxGeometry x="290" y="40" width="120" height="60" as="geometry" />
        </mxCell>
        <mxCell id="eQs5KJgAMZQmj60F_Wst-11" value="view order list" style="ellipse;whiteSpace=wrap;html=1;" vertex="1" parent="eQs5KJgAMZQmj60F_Wst-5">
          <mxGeometry x="290" y="110" width="120" height="70" as="geometry" />
        </mxCell>
        <mxCell id="eQs5KJgAMZQmj60F_Wst-15" value="edit menu item" style="ellipse;whiteSpace=wrap;html=1;" vertex="1" parent="eQs5KJgAMZQmj60F_Wst-5">
          <mxGeometry x="280" y="190" width="130" height="80" as="geometry" />
        </mxCell>
        <mxCell id="eQs5KJgAMZQmj60F_Wst-18" value="view inventory level" style="ellipse;whiteSpace=wrap;html=1;" vertex="1" parent="eQs5KJgAMZQmj60F_Wst-5">
          <mxGeometry x="275" y="280" width="125" height="80" as="geometry" />
        </mxCell>
        <mxCell id="eQs5KJgAMZQmj60F_Wst-21" value="view sales report" style="ellipse;whiteSpace=wrap;html=1;" vertex="1" parent="eQs5KJgAMZQmj60F_Wst-5">
          <mxGeometry x="280" y="370" width="120" height="80" as="geometry" />
        </mxCell>
        <mxCell id="eQs5KJgAMZQmj60F_Wst-27" value="add item quantity&amp;nbsp; &lt;br&gt;to cart" style="ellipse;whiteSpace=wrap;html=1;" vertex="1" parent="eQs5KJgAMZQmj60F_Wst-5">
          <mxGeometry x="70" y="50" width="120" height="80" as="geometry" />
        </mxCell>
        <mxCell id="eQs5KJgAMZQmj60F_Wst-29" value="payment" style="ellipse;whiteSpace=wrap;html=1;" vertex="1" parent="eQs5KJgAMZQmj60F_Wst-5">
          <mxGeometry x="90" y="470" width="120" height="80" as="geometry" />
        </mxCell>
        <mxCell id="eQs5KJgAMZQmj60F_Wst-31" value="view order history" style="ellipse;whiteSpace=wrap;html=1;" vertex="1" parent="eQs5KJgAMZQmj60F_Wst-5">
          <mxGeometry x="60" y="300" width="120" height="80" as="geometry" />
        </mxCell>
        <mxCell id="eQs5KJgAMZQmj60F_Wst-34" value="edit customer information" style="ellipse;whiteSpace=wrap;html=1;" vertex="1" parent="eQs5KJgAMZQmj60F_Wst-5">
          <mxGeometry x="70" y="170" width="120" height="80" as="geometry" />
        </mxCell>
        <mxCell id="eQs5KJgAMZQmj60F_Wst-6" value="&lt;font style=&quot;font-size: 14px;&quot;&gt;Bakery Managment&lt;/font&gt;" style="text;html=1;align=center;verticalAlign=middle;resizable=0;points=[];autosize=1;strokeColor=none;fillColor=none;" vertex="1" parent="1">
          <mxGeometry x="295" y="-10" width="140" height="30" as="geometry" />
        </mxCell>
        <mxCell id="eQs5KJgAMZQmj60F_Wst-8" value="Bakery Manager" style="shape=umlActor;verticalLabelPosition=bottom;verticalAlign=top;html=1;outlineConnect=0;" vertex="1" parent="1">
          <mxGeometry x="710" y="190" width="30" height="60" as="geometry" />
        </mxCell>
        <mxCell id="eQs5KJgAMZQmj60F_Wst-23" value="customer" style="shape=umlActor;verticalLabelPosition=bottom;verticalAlign=top;html=1;outlineConnect=0;" vertex="1" parent="1">
          <mxGeometry x="60" y="305" width="30" height="60" as="geometry" />
        </mxCell>
        <mxCell id="eQs5KJgAMZQmj60F_Wst-33" value="bank" style="shape=umlActor;verticalLabelPosition=bottom;verticalAlign=top;html=1;outlineConnect=0;" vertex="1" parent="1">
          <mxGeometry x="630" y="510" width="30" height="60" as="geometry" />
        </mxCell>
        <mxCell id="eQs5KJgAMZQmj60F_Wst-39" value="" style="endArrow=none;html=1;rounded=0;entryX=0.008;entryY=0.688;entryDx=0;entryDy=0;entryPerimeter=0;exitX=1;exitY=0.3333333333333333;exitDx=0;exitDy=0;exitPerimeter=0;" edge="1" parent="1" source="eQs5KJgAMZQmj60F_Wst-23" target="eQs5KJgAMZQmj60F_Wst-27">
          <mxGeometry width="50" height="50" relative="1" as="geometry">
            <mxPoint x="160" y="155" as="sourcePoint" />
            <mxPoint x="210" y="105" as="targetPoint" />
          </mxGeometry>
        </mxCell>
        <mxCell id="eQs5KJgAMZQmj60F_Wst-41" value="" style="endArrow=none;html=1;rounded=0;entryX=0;entryY=0.5;entryDx=0;entryDy=0;exitX=1;exitY=1;exitDx=0;exitDy=0;exitPerimeter=0;" edge="1" parent="1" source="eQs5KJgAMZQmj60F_Wst-23" target="eQs5KJgAMZQmj60F_Wst-31">
          <mxGeometry width="50" height="50" relative="1" as="geometry">
            <mxPoint x="340" y="310" as="sourcePoint" />
            <mxPoint x="390" y="260" as="targetPoint" />
          </mxGeometry>
        </mxCell>
        <mxCell id="eQs5KJgAMZQmj60F_Wst-43" value="" style="endArrow=none;html=1;rounded=0;exitX=0;exitY=0.3333333333333333;exitDx=0;exitDy=0;exitPerimeter=0;entryX=1;entryY=0.5;entryDx=0;entryDy=0;" edge="1" parent="1" source="eQs5KJgAMZQmj60F_Wst-8" target="eQs5KJgAMZQmj60F_Wst-10">
          <mxGeometry width="50" height="50" relative="1" as="geometry">
            <mxPoint x="340" y="310" as="sourcePoint" />
            <mxPoint x="390" y="260" as="targetPoint" />
          </mxGeometry>
        </mxCell>
        <mxCell id="eQs5KJgAMZQmj60F_Wst-44" value="" style="endArrow=none;html=1;rounded=0;entryX=1;entryY=0.5;entryDx=0;entryDy=0;" edge="1" parent="1" target="eQs5KJgAMZQmj60F_Wst-11">
          <mxGeometry width="50" height="50" relative="1" as="geometry">
            <mxPoint x="710" y="210" as="sourcePoint" />
            <mxPoint x="390" y="260" as="targetPoint" />
          </mxGeometry>
        </mxCell>
        <mxCell id="eQs5KJgAMZQmj60F_Wst-45" value="" style="endArrow=none;html=1;rounded=0;exitX=0;exitY=1;exitDx=0;exitDy=0;exitPerimeter=0;entryX=1;entryY=0.425;entryDx=0;entryDy=0;entryPerimeter=0;" edge="1" parent="1" source="eQs5KJgAMZQmj60F_Wst-8" target="eQs5KJgAMZQmj60F_Wst-15">
          <mxGeometry width="50" height="50" relative="1" as="geometry">
            <mxPoint x="340" y="310" as="sourcePoint" />
            <mxPoint x="390" y="260" as="targetPoint" />
          </mxGeometry>
        </mxCell>
        <mxCell id="eQs5KJgAMZQmj60F_Wst-46" value="" style="endArrow=none;html=1;rounded=0;exitX=0;exitY=1;exitDx=0;exitDy=0;exitPerimeter=0;entryX=1;entryY=0.5;entryDx=0;entryDy=0;" edge="1" parent="1" source="eQs5KJgAMZQmj60F_Wst-8" target="eQs5KJgAMZQmj60F_Wst-18">
          <mxGeometry width="50" height="50" relative="1" as="geometry">
            <mxPoint x="340" y="310" as="sourcePoint" />
            <mxPoint x="390" y="260" as="targetPoint" />
          </mxGeometry>
        </mxCell>
        <mxCell id="eQs5KJgAMZQmj60F_Wst-47" value="" style="endArrow=none;html=1;rounded=0;entryX=0;entryY=1;entryDx=0;entryDy=0;entryPerimeter=0;exitX=1;exitY=0.5;exitDx=0;exitDy=0;" edge="1" parent="1" source="eQs5KJgAMZQmj60F_Wst-21" target="eQs5KJgAMZQmj60F_Wst-8">
          <mxGeometry width="50" height="50" relative="1" as="geometry">
            <mxPoint x="650" y="340" as="sourcePoint" />
            <mxPoint x="700" y="290" as="targetPoint" />
          </mxGeometry>
        </mxCell>
        <mxCell id="eQs5KJgAMZQmj60F_Wst-48" value="" style="endArrow=none;html=1;rounded=0;entryX=0;entryY=0.5;entryDx=0;entryDy=0;" edge="1" parent="1" source="eQs5KJgAMZQmj60F_Wst-23" target="eQs5KJgAMZQmj60F_Wst-34">
          <mxGeometry width="50" height="50" relative="1" as="geometry">
            <mxPoint x="100" y="200" as="sourcePoint" />
            <mxPoint x="221" y="125" as="targetPoint" />
          </mxGeometry>
        </mxCell>
        <mxCell id="eQs5KJgAMZQmj60F_Wst-49" value="" style="endArrow=none;html=1;rounded=0;entryX=0.021;entryY=0.4;entryDx=0;entryDy=0;entryPerimeter=0;exitX=1;exitY=1;exitDx=0;exitDy=0;exitPerimeter=0;" edge="1" parent="1" source="eQs5KJgAMZQmj60F_Wst-23" target="eQs5KJgAMZQmj60F_Wst-29">
          <mxGeometry width="50" height="50" relative="1" as="geometry">
            <mxPoint x="110" y="210" as="sourcePoint" />
            <mxPoint x="231" y="135" as="targetPoint" />
          </mxGeometry>
        </mxCell>
        <mxCell id="eQs5KJgAMZQmj60F_Wst-50" value="" style="endArrow=none;html=1;rounded=0;entryX=0;entryY=0.3333333333333333;entryDx=0;entryDy=0;entryPerimeter=0;exitX=0.977;exitY=0.689;exitDx=0;exitDy=0;exitPerimeter=0;" edge="1" parent="1" source="eQs5KJgAMZQmj60F_Wst-29" target="eQs5KJgAMZQmj60F_Wst-33">
          <mxGeometry width="50" height="50" relative="1" as="geometry">
            <mxPoint x="120" y="220" as="sourcePoint" />
            <mxPoint x="241" y="145" as="targetPoint" />
          </mxGeometry>
        </mxCell>
      </root>
    </mxGraphModel>
  </diagram>
</mxfile>
